<svg width="32" height="32" viewBox="0 0 32 32" fill="none" xmlns="http://www.w3.org/2000/svg">
<path fill-rule="evenodd" clip-rule="evenodd" d="M16.0003 5.33464C10.1093 5.33464 5.33366 10.1103 5.33366 16.0013C5.33366 21.8923 10.1093 26.668 16.0003 26.668C21.8914 26.668 26.667 21.8923 26.667 16.0013C26.667 10.1103 21.8914 5.33464 16.0003 5.33464ZM2.66699 16.0013C2.66699 8.63751 8.63653 2.66797 16.0003 2.66797C23.3641 2.66797 29.3337 8.63751 29.3337 16.0013C29.3337 23.3651 23.3641 29.3346 16.0003 29.3346C8.63653 29.3346 2.66699 23.3651 2.66699 16.0013Z" fill="#017CEB"/>
<path fill-rule="evenodd" clip-rule="evenodd" d="M16.9431 11.0585C17.4638 11.5792 17.4638 12.4234 16.9431 12.9441L13.8859 16.0013L16.9431 19.0585C17.4638 19.5792 17.4638 20.4234 16.9431 20.9441C16.4224 21.4648 15.5782 21.4648 15.0575 20.9441L11.0575 16.9441C10.5368 16.4234 10.5368 15.5792 11.0575 15.0585L15.0575 11.0585C15.5782 10.5378 16.4224 10.5378 16.9431 11.0585Z" fill="#017CEB"/>
<path fill-rule="evenodd" clip-rule="evenodd" d="M10.667 16.0013C10.667 15.2649 11.2639 14.668 12.0003 14.668H20.0003C20.7367 14.668 21.3337 15.2649 21.3337 16.0013C21.3337 16.7377 20.7367 17.3346 20.0003 17.3346H12.0003C11.2639 17.3346 10.667 16.7377 10.667 16.0013Z" fill="#017CEB"/>
</svg>
