<svg width="24" height="24" viewBox="0 0 24 24" fill="none" xmlns="http://www.w3.org/2000/svg">
<path fill-rule="evenodd" clip-rule="evenodd" d="M16.4711 7.52729C16.7314 7.78764 16.7314 8.20975 16.4711 8.4701L8.47108 16.4701C8.21073 16.7305 7.78862 16.7305 7.52827 16.4701C7.26792 16.2098 7.26792 15.7876 7.52827 15.5273L15.5283 7.52729C15.7886 7.26694 16.2107 7.26694 16.4711 7.52729Z" fill="#8A99A8"/>
<path fill-rule="evenodd" clip-rule="evenodd" d="M7.52827 7.52729C7.78862 7.26694 8.21073 7.26694 8.47108 7.52729L16.4711 15.5273C16.7314 15.7876 16.7314 16.2098 16.4711 16.4701C16.2107 16.7305 15.7886 16.7305 15.5283 16.4701L7.52827 8.4701C7.26792 8.20975 7.26792 7.78764 7.52827 7.52729Z" fill="#8A99A8"/>
</svg>
