<svg width="24" height="24" viewBox="0 0 24 24" fill="none" xmlns="http://www.w3.org/2000/svg">
<path fill-rule="evenodd" clip-rule="evenodd" d="M16.4716 7.52729C16.7319 7.78764 16.7319 8.20975 16.4716 8.4701L8.47157 16.4701C8.21122 16.7305 7.78911 16.7305 7.52876 16.4701C7.26841 16.2098 7.26841 15.7876 7.52876 15.5273L15.5288 7.52729C15.7891 7.26694 16.2112 7.26694 16.4716 7.52729Z" fill="white"/>
<path fill-rule="evenodd" clip-rule="evenodd" d="M7.52876 7.52729C7.78911 7.26694 8.21122 7.26694 8.47157 7.52729L16.4716 15.5273C16.7319 15.7876 16.7319 16.2098 16.4716 16.4701C16.2112 16.7305 15.7891 16.7305 15.5288 16.4701L7.52876 8.4701C7.26841 8.20975 7.26841 7.78764 7.52876 7.52729Z" fill="white"/>
</svg>
