<svg width="184" height="184" viewBox="0 0 184 184" fill="none" xmlns="http://www.w3.org/2000/svg">
<path d="M110.255 29.9805H66.3262V59.6648H110.255V29.9805Z" fill="#F2F4F8"/>
<path d="M38.8242 120.915H55.0629L55.069 91.2305H38.8242V120.915Z" fill="#F2F4F8"/>
<path d="M14.2493 33.0508C10.6652 36.9215 8.31066 41.6357 7.44727 46.6698H14.2493V33.0508Z" fill="#F2F4F8"/>
<path d="M137.236 66.3475V66.4684C137.59 66.5958 137.894 66.819 138.108 67.1089C138.322 67.3988 138.437 67.7418 138.437 68.0929C138.437 68.4441 138.322 68.7871 138.108 69.077C137.894 69.3668 137.59 69.5901 137.236 69.7175V86.6242H140.474V78.5125H145.131V60.6055H114.33V66.3475H137.236Z" fill="#F2F4F8"/>
<path d="M145.13 50.6208H148.095V48.8347C148.094 47.5761 148.315 46.3257 148.75 45.1333C148.816 44.9551 148.886 44.7783 148.96 44.603C149.219 43.9952 149.534 43.4089 149.901 42.8506C150.005 42.6918 150.113 42.5358 150.225 42.3824C150.281 42.306 150.338 42.2296 150.396 42.1532C150.444 42.0912 150.495 42.0316 150.544 41.9705C146.208 38.3948 141.455 35.2773 136.372 32.6757C136.02 31.7584 135.644 30.8587 135.244 29.9766H114.33V59.6616H145.131V50.6208H145.13Z" fill="#F2F4F8"/>
<path d="M134.804 29.0387C131.754 22.7167 127.345 17.4742 120.964 14.4279C118.845 13.416 116.623 12.6001 114.33 11.9922V29.0387H134.804Z" fill="#F2F4F8"/>
<path d="M62.2526 16.1406C61.4849 17.0547 60.8204 18.039 60.2693 19.0783C59.683 20.1858 57.5799 22.7454 54.9552 24.0637C52.2409 25.4266 48.9687 25.516 46.2385 24.6962C41.6311 23.3173 36.7312 22.9918 31.9583 23.7479C27.1853 24.5039 22.6813 26.3188 18.832 29.0374H62.2526V16.1406Z" fill="#F2F4F8"/>
<path d="M55.0691 90.2897L55.0705 82.8279C54.7668 82.7184 54.506 82.5267 54.3221 82.2777C54.1382 82.0288 54.0399 81.7343 54.0399 81.4328C54.0399 81.1313 54.1382 80.8368 54.3221 80.5879C54.506 80.339 54.7668 80.1473 55.0705 80.0378V79.9341H62.2519V60.6055H38.8242V90.2897H55.0691Z" fill="#F2F4F8"/>
<path d="M36.6845 46.6716C36.9656 46.6716 37.2439 46.7228 37.5037 46.8223C37.7634 46.9219 37.9994 47.0678 38.1982 47.2517C38.397 47.4357 38.5547 47.6541 38.6623 47.8944C38.7699 48.1347 38.8252 48.3923 38.8252 48.6525V59.664H62.2532V29.9805H18.3242V46.6724H36.6845V46.6716Z" fill="#F2F4F8"/>
<path d="M110.255 29.0386V11.1459C103.027 10.056 95.6108 11.0239 88.9901 13.9212C85.9258 11.3723 82.0226 9.85317 77.9105 9.60904C73.7985 9.3649 69.7174 10.41 66.3262 12.5756V29.0386H110.255Z" fill="#F2F4F8"/>
<path d="M38.8242 130.152H55.0606L55.0622 121.859H38.8242V130.152Z" fill="#F2F4F8"/>
<path d="M91.8845 79.9341V80.0378C92.1881 80.1473 92.4489 80.339 92.6328 80.5879C92.8167 80.8368 92.9152 81.1313 92.9152 81.4328C92.9152 81.7343 92.8167 82.0288 92.6328 82.2778C92.4489 82.5267 92.1881 82.7184 91.8845 82.8279V86.6242H94.3637V69.7175C94.0101 69.5901 93.7063 69.3668 93.492 69.077C93.2778 68.7871 93.1632 68.4441 93.1632 68.0929C93.1632 67.7418 93.2778 67.3988 93.492 67.1089C93.7063 66.819 94.0101 66.5958 94.3637 66.4684V66.3475H110.255V60.6055H66.3262V79.9341H91.8845Z" fill="#F2F4F8"/>
<path d="M18.3242 152.484V153.245C21.6615 160.118 27.4239 165.738 34.6666 169.184C43.628 173.462 53.058 173.403 62.2532 170.869V152.484H18.3242Z" fill="#EAEEF3"/>
<path d="M62.2519 151.543V121.859H55.0625L55.0608 130.152H38.8238V121.859H20.5966C20.0847 122.62 19.6017 123.406 19.1477 124.216C18.8563 124.738 18.5812 125.264 18.3223 125.795V151.543H62.2519Z" fill="#EAEEF3"/>
<path d="M8.91406 60.6055C9.45712 61.969 10.1159 63.2907 10.8844 64.558C11.36 65.343 12.7478 67.367 14.2509 70.1026V60.6055H8.91406Z" fill="#EAEEF3"/>
<path d="M38.8252 59.6643V48.6527C38.8252 48.3926 38.7699 48.135 38.6623 47.8947C38.5547 47.6543 38.397 47.4359 38.1982 47.252C37.9994 47.0681 37.7634 46.9221 37.5037 46.8226C37.2439 46.7231 36.9656 46.6718 36.6845 46.6719H18.3242V59.6643H38.8252Z" fill="#EAEEF3"/>
<path d="M66.3262 152.484V169.584C69.8636 168.311 73.2898 166.787 76.5741 165.027C83.7588 167.001 91.2151 167.999 98.7097 167.991C102.574 167.992 106.433 167.729 110.255 167.204V152.484H66.3262Z" fill="#EAEEF3"/>
<path d="M38.8252 60.6055H18.3242V79.9618C19.0899 82.7498 19.6931 85.5737 20.1315 88.4216C20.088 89.0447 20.0566 89.6674 20.0372 90.2897H38.8252V60.6055Z" fill="#EAEEF3"/>
<path d="M158.259 49.2946C155.877 46.6892 153.299 44.2425 150.545 41.9727C150.496 42.0338 150.445 42.0933 150.397 42.1554C150.339 42.2309 150.282 42.3073 150.226 42.3845C150.114 42.5373 150.006 42.6933 149.902 42.8527C149.535 43.4111 149.22 43.9974 148.961 44.6052C148.887 44.7798 148.817 44.9566 148.751 45.1354C148.316 46.3279 148.095 47.5783 148.096 48.8369V50.623H145.131V59.6638H158.259V49.2946Z" fill="#EAEEF3"/>
<path d="M38.8242 91.2305H20.0157C19.9674 95.0538 20.3602 98.871 21.1873 102.617C21.7191 107.309 22.7322 111.943 24.213 116.456C23.8978 117.348 23.4222 118.184 22.8063 118.929C22.2654 119.569 21.7476 120.231 21.2531 120.915H38.8242V91.2305Z" fill="#EAEEF3"/>
<path d="M162.332 90.2897H176.441C175.588 79.8591 172.279 69.7273 166.746 60.6055H162.332V90.2897Z" fill="#EAEEF3"/>
<path d="M62.2523 120.915V91.2305H55.0686L55.0625 120.915L62.2523 120.915Z" fill="#EAEEF3"/>
<path d="M55.0716 79.9336V80.0373C54.768 80.1467 54.5071 80.3385 54.3233 80.5874C54.1394 80.8363 54.041 81.1308 54.041 81.4323C54.041 81.7338 54.1394 82.0283 54.3233 82.2772C54.5071 82.5261 54.768 82.7179 55.0716 82.8274L55.0702 90.2893H62.2535V79.9336H55.072H55.0716Z" fill="#EAEEF3"/>
<path d="M110.255 90.2899V66.3477H94.3637V66.4685C94.0101 66.5959 93.7063 66.8192 93.492 67.1091C93.2778 67.3989 93.1632 67.7419 93.1632 68.0931C93.1632 68.4442 93.2778 68.7872 93.492 69.0771C93.7063 69.367 94.0101 69.5902 94.3637 69.7176V86.6244H91.8845V82.828C92.1881 82.7186 92.4489 82.5268 92.6328 82.2779C92.8167 82.029 92.9152 81.7345 92.9152 81.433C92.9152 81.1315 92.8167 80.837 92.6328 80.5881C92.4489 80.3392 92.1881 80.1474 91.8845 80.0379V79.9343H66.3262V90.2899H110.255Z" fill="#EAEEF3"/>
<path d="M162.332 120.918H171.837C175.045 112.896 176.682 104.41 176.672 95.8565C176.672 94.3035 176.619 92.7628 176.512 91.2344H162.332V120.918Z" fill="#EAEEF3"/>
<path d="M158.258 90.2897V60.6055H145.13V78.5125H140.473V86.6242H137.236V69.7175C137.59 69.5901 137.894 69.3668 138.108 69.077C138.322 68.7871 138.437 68.4441 138.437 68.0929C138.437 67.7418 138.322 67.3988 138.108 67.1089C137.894 66.819 137.59 66.5958 137.236 66.4684V66.3475H114.33V90.2897H158.258Z" fill="#EAEEF3"/>
<path d="M8.5603 59.6643H14.2496V46.6719H7.44759C6.70152 51.0231 7.08291 55.4761 8.5603 59.6643Z" fill="#EAEEF3"/>
<path d="M166.165 59.6632C164.976 57.7707 163.699 55.9351 162.332 54.1562V59.6632H166.165Z" fill="#EAEEF3"/>
<path d="M110.255 121.859H66.3262V151.544H110.255V121.859Z" fill="#EAEEF3"/>
<path d="M114.33 166.542C126.263 164.293 137.457 159.477 147.007 152.484H114.33V166.542Z" fill="#EAEEF3"/>
<path d="M114.33 121.859V151.543H148.27C151.888 148.784 155.231 145.73 158.258 142.418V121.859H114.33Z" fill="#EAEEF3"/>
<path d="M110.255 91.2305H66.3262V120.915H110.255V91.2305Z" fill="#EAEEF3"/>
<path d="M162.332 121.859V137.557C166.063 132.694 169.126 127.421 171.451 121.859H162.332Z" fill="#EAEEF3"/>
<path d="M158.259 91.2305H114.33V120.915H158.259V91.2305Z" fill="#EAEEF3"/>
<path d="M66.3262 29.9805H110.255V59.664H66.3262V29.9805Z" fill="#F2F4F8"/>
<path d="M55.0684 91.2305H62.2519V120.915H55.0625L55.0684 91.2305ZM171.837 120.915H162.332V91.2305H176.512L171.837 120.915ZM110.255 151.541H66.3256V121.857H110.255L110.255 151.541ZM110.255 120.914H66.3256V91.2305H110.255L110.255 120.914ZM158.258 120.914H114.329V91.2305H158.259L158.258 120.914Z" fill="#EAEEF3"/>
<path d="M88.2906 175.281C130.412 175.281 164.558 172.486 164.558 169.039C164.558 165.592 130.412 162.797 88.2906 162.797C46.1694 162.797 12.0234 165.592 12.0234 169.039C12.0234 172.486 46.1694 175.281 88.2906 175.281Z" fill="#F2F4F8"/>
<path d="M139.877 169.517C143.408 169.517 146.271 169.219 146.271 168.852C146.271 168.485 143.408 168.188 139.877 168.188C136.345 168.188 133.482 168.485 133.482 168.852C133.482 169.219 136.345 169.517 139.877 169.517Z" fill="#EAEEF3"/>
<path d="M151.698 168.265C156.304 168.265 160.038 167.877 160.038 167.398C160.038 166.919 156.304 166.531 151.698 166.531C147.092 166.531 143.357 166.919 143.357 167.398C143.357 167.877 147.092 168.265 151.698 168.265Z" fill="#EAEEF3"/>
<path d="M43.9433 170.271C51.576 170.271 57.7635 169.628 57.7635 168.835C57.7635 168.042 51.576 167.398 43.9433 167.398C36.3106 167.398 30.123 168.042 30.123 168.835C30.123 169.628 36.3106 170.271 43.9433 170.271Z" fill="#EAEEF3"/>
<path d="M54.0609 134.565L49.6466 130.59C49.5517 130.505 49.4398 130.439 49.3173 130.395C49.1947 130.351 49.0639 130.33 48.9325 130.332C48.801 130.335 48.6714 130.362 48.5512 130.411C48.4309 130.46 48.3224 130.531 48.2318 130.619C48.05 130.796 47.9513 131.032 47.9573 131.276C47.9632 131.52 48.0733 131.752 48.2635 131.921L52.6857 135.903C53.1603 136.321 53.8585 136.361 54.2368 135.993C54.6149 135.625 54.5359 134.981 54.0609 134.565Z" fill="#FFCE94"/>
<path d="M47.1372 140.571L54.1104 136.153C54.2187 136.084 54.3112 135.996 54.3826 135.894C54.454 135.791 54.5029 135.677 54.5264 135.557C54.55 135.438 54.5477 135.315 54.5198 135.196C54.4918 135.077 54.4387 134.964 54.3636 134.865C54.213 134.664 53.9827 134.527 53.7233 134.484C53.4638 134.44 53.1962 134.493 52.9789 134.631L45.9969 139.056C45.4591 139.402 45.2746 140.027 45.5891 140.444C45.9028 140.86 46.5994 140.918 47.1372 140.571Z" fill="#FFCE94"/>
<path d="M46.9786 140.673L50.3615 138.527L49.2212 137.012L45.8387 139.157C45.6222 139.298 45.4744 139.512 45.4278 139.752C45.3812 139.993 45.4394 140.241 45.5898 140.443C45.7416 140.643 45.9728 140.779 46.233 140.822C46.4932 140.866 46.7612 140.812 46.9786 140.673Z" fill="#145EB3"/>
<path d="M48.9393 132.531C49.767 132.276 50.2148 131.449 49.9394 130.683C49.6641 129.917 48.7698 129.503 47.9421 129.757C47.1144 130.012 46.6666 130.84 46.942 131.606C47.2174 132.371 48.1116 132.786 48.9393 132.531Z" fill="#FFCE94"/>
<path d="M43.9044 152.361C41.2517 152.566 38.927 151.025 38.6751 148.228L38.1574 142.487C37.9053 139.69 40.2314 137.616 42.8842 137.411C45.5372 137.206 47.5519 138.945 47.804 141.742L48.3216 147.484C48.5737 150.28 46.5572 152.156 43.9044 152.361Z" fill="#00AEEF"/>
<path d="M43.9122 152.444C41.2594 152.649 38.9553 151.335 38.7341 148.88L38.6758 148.233L48.3223 147.488L48.3807 148.136C48.6019 150.591 46.5652 152.24 43.9122 152.444Z" fill="#231F20"/>
<path d="M40.8415 129.017L42.6061 128.855C42.7816 128.839 42.9569 128.888 43.0933 128.991C43.2298 129.094 43.3162 129.244 43.3337 129.406L44.2829 138.234C44.3237 138.613 44.2001 138.991 43.9393 139.286C43.6786 139.58 43.302 139.767 42.8925 139.805C42.483 139.842 42.0741 139.728 41.7557 139.487C41.4373 139.245 41.2355 138.897 41.1948 138.518L40.2455 129.69C40.2281 129.528 40.281 129.366 40.3928 129.24C40.5046 129.113 40.666 129.033 40.8415 129.017Z" fill="#F4BF87"/>
<path d="M39.7266 130.004L47.3367 131.248L46.6646 134.768C46.4863 135.702 45.9146 136.532 45.075 137.075C44.2355 137.619 43.197 137.831 42.188 137.667C41.6882 137.585 41.2108 137.413 40.7828 137.161C40.3549 136.908 39.9849 136.581 39.6939 136.196C39.4029 135.811 39.1967 135.377 39.087 134.919C38.9773 134.46 38.9662 133.987 39.0545 133.524L39.7266 130.004Z" fill="#FFCE94"/>
<path d="M41.4743 128.203C40.8968 128.109 40.3025 128.231 39.8222 128.542C39.3418 128.853 39.0147 129.328 38.9129 129.862L38.7406 130.766L38.6937 131.012L38.2383 133.404L38.5891 133.461C38.7885 133.494 38.9937 133.451 39.1597 133.344C39.3256 133.237 39.4386 133.073 39.4738 132.888L39.6182 132.133C39.6417 132.01 39.6914 131.892 39.7642 131.786C39.837 131.68 39.9316 131.589 40.0426 131.517C40.1536 131.445 40.2788 131.394 40.4111 131.367C40.5434 131.34 40.6802 131.337 40.8137 131.359L46.552 132.294C46.8379 132.341 47.1311 132.335 47.4145 132.277C47.698 132.219 47.9662 132.11 48.2041 131.956C48.4419 131.801 48.6447 131.606 48.8007 131.379C48.9567 131.152 49.063 130.9 49.1134 130.635L49.3325 129.485L41.4743 128.203Z" fill="#231F20"/>
<path d="M39.4734 131.795L39.9879 131.879L39.6039 133.895L39.0893 133.811C38.9529 133.789 38.8316 133.717 38.7521 133.612C38.6727 133.507 38.6415 133.377 38.6656 133.251L38.8683 132.187C38.8924 132.061 38.9696 131.948 39.0831 131.875C39.1966 131.801 39.3369 131.773 39.4734 131.795V131.795Z" fill="#EFBB81"/>
<path d="M48.469 159.119C48.3837 158.544 47.8104 158.141 47.1885 158.22C46.5666 158.299 46.1317 158.83 46.217 159.405L47.4285 167.573C47.5138 168.148 48.0871 168.551 48.709 168.472C49.3309 168.393 49.7658 167.863 49.6805 167.287L48.469 159.119Z" fill="#231F20"/>
<path d="M47.2687 151.007C47.1837 150.431 46.6108 150.029 45.989 150.108C45.3673 150.186 44.9322 150.716 45.0172 151.292L46.2243 159.458C46.3093 160.033 46.8823 160.436 47.504 160.357C48.1257 160.278 48.5608 159.748 48.4758 159.173L47.2687 151.007Z" fill="#231F20"/>
<path d="M47.3008 167.355H49.9989C50.4022 167.355 50.7889 167.504 51.0741 167.768C51.3592 168.031 51.5194 168.389 51.5194 168.762V169.269H47.3008V167.355Z" fill="#233038"/>
<path d="M38.2755 167.287C38.1905 167.862 38.6256 168.392 39.2473 168.471C39.869 168.549 40.442 168.147 40.527 167.572L41.7341 159.406C41.8191 158.83 41.384 158.3 40.7623 158.222C40.1406 158.143 39.5676 158.545 39.4826 159.121L38.2755 167.287Z" fill="#231F20"/>
<path d="M39.4747 159.173C39.3897 159.749 39.8248 160.279 40.4465 160.358C41.0683 160.436 41.6412 160.034 41.7262 159.458L42.9333 151.292C43.0183 150.717 42.5832 150.187 41.9615 150.108C41.3398 150.029 40.7668 150.432 40.6818 151.007L39.4747 159.173Z" fill="#231F20"/>
<path d="M40.6504 169.266L36.4315 169.268L36.4312 168.762C36.431 168.577 36.4702 168.394 36.5465 168.223C36.6228 168.052 36.7347 167.897 36.8758 167.767C37.0169 167.636 37.1844 167.532 37.3689 167.461C37.5533 167.39 37.751 167.354 37.9506 167.354L40.649 167.352L40.6504 169.266Z" fill="#233038"/>
<path d="M35.8383 146.372L41.3482 148.919C41.4654 148.975 41.5697 149.05 41.6552 149.143C41.7406 149.235 41.8054 149.343 41.8459 149.458C41.8864 149.574 41.9018 149.696 41.8912 149.818C41.8805 149.939 41.8441 150.057 41.784 150.165C41.6633 150.382 41.4548 150.546 41.2039 150.621C40.9529 150.696 40.6801 150.677 40.4449 150.566L34.9255 148.014C34.3426 147.737 34.0711 147.14 34.3221 146.689C34.5732 146.237 35.2555 146.095 35.8383 146.372Z" fill="#FFCE94"/>
<path d="M40.0597 140.592L36.1095 147.506C36.0478 147.613 35.9638 147.708 35.8622 147.785C35.7607 147.863 35.6436 147.921 35.5177 147.956C35.3919 147.991 35.2597 148.003 35.1288 147.991C34.9979 147.979 34.871 147.943 34.7552 147.885C34.523 147.77 34.3498 147.573 34.2733 147.34C34.1969 147.106 34.2234 146.854 34.3472 146.639L38.3023 139.717C38.6131 139.182 39.2627 138.943 39.7469 139.184C40.2291 139.425 40.3693 140.059 40.0597 140.592Z" fill="#FFCE94"/>
<path d="M40.1519 140.435L38.2338 143.789L36.4766 142.913L38.3958 139.559C38.5218 139.344 38.7347 139.184 38.988 139.113C39.2412 139.043 39.5142 139.068 39.7474 139.184C39.9797 139.3 40.1527 139.498 40.2285 139.732C40.3042 139.966 40.2767 140.219 40.1519 140.435Z" fill="#71D4FF"/>
<path d="M42.5322 150.768C43.1102 150.163 43.0491 149.24 42.3957 148.705C41.7423 148.17 40.7439 148.226 40.1658 148.831C39.5878 149.436 39.6489 150.359 40.3023 150.894C40.9557 151.429 41.9541 151.373 42.5322 150.768Z" fill="#FFCE94"/>
<path d="M93.5425 138.142L86.2464 136.391C85.1915 136.137 84.0929 136.079 83.0135 136.218C81.934 136.358 80.8949 136.693 79.9553 137.204C79.0158 137.715 78.1942 138.393 77.5376 139.197C76.881 140.002 76.4023 140.919 76.1286 141.895L74.2131 148.722C73.6605 150.693 73.9769 152.787 75.0926 154.542C76.2084 156.298 78.0321 157.571 80.1625 158.082L87.4586 159.834C89.5889 160.346 91.8516 160.053 93.749 159.021C95.6464 157.989 97.023 156.302 97.5761 154.331L99.4924 147.504C99.7661 146.528 99.8293 145.512 99.6785 144.513C99.5276 143.514 99.1656 142.553 98.6131 141.683C98.0606 140.814 97.3284 140.054 96.4584 139.446C95.5884 138.839 94.5976 138.396 93.5425 138.142Z" fill="#00AEEF"/>
<path d="M130.143 41.0583L105.279 35.0886C104.575 34.9209 103.841 34.8889 103.123 34.9945C102.405 35.1001 101.718 35.3411 101.105 35.7025C100.492 36.064 99.9653 36.5382 99.5584 37.0957C99.1515 37.6532 98.8727 38.2821 98.7394 38.9434L82.2975 119.395C82.0448 120.618 82.304 121.885 83.0227 122.938C83.7413 123.991 84.8656 124.752 86.1679 125.066L99.5642 128.283C100.868 128.593 102.25 128.434 103.431 127.837C104.612 127.241 105.505 126.251 105.927 125.069L133.834 47.3699C134.065 46.7319 134.152 46.0568 134.089 45.3865C134.026 44.7161 133.815 44.0648 133.469 43.4731C133.123 42.8813 132.649 42.3616 132.077 41.9463C131.505 41.531 130.847 41.229 130.143 41.0589V41.0583Z" fill="#00AEEF"/>
<path d="M91.8723 170.477C104.275 170.477 114.329 169.458 114.329 168.201C114.329 166.945 104.275 165.926 91.8723 165.926C79.47 165.926 69.416 166.945 69.416 168.201C69.416 169.458 79.47 170.477 91.8723 170.477Z" fill="#EAEEF3"/>
<path d="M103.29 27.1707C102.966 27.1705 102.651 27.0764 102.388 26.9018C102.125 26.7271 101.928 26.4806 101.825 26.1969L97.3852 14.0388C97.2566 13.6796 97.2868 13.2879 97.4692 12.9493C97.6517 12.6107 97.9717 12.3526 98.3591 12.2316C98.7465 12.1105 99.17 12.1362 99.537 12.3031C99.904 12.47 100.185 12.7645 100.318 13.1222L104.758 25.2804C104.836 25.4958 104.858 25.7254 104.821 25.9502C104.785 26.175 104.691 26.3886 104.548 26.5732C104.404 26.7579 104.216 26.9084 103.997 27.0123C103.779 27.1162 103.536 27.1705 103.291 27.1707H103.29Z" fill="#00AEEF"/>
<path d="M93.2808 38.1691C93.1185 38.169 92.9573 38.1453 92.8029 38.0989L82.3787 34.9702C82.1854 34.9122 82.0064 34.8195 81.8518 34.6974C81.6971 34.5753 81.57 34.4263 81.4776 34.2587C81.2911 33.9204 81.2575 33.5273 81.3841 33.166C81.5108 32.8047 81.7874 32.5048 82.153 32.3322C82.5187 32.1596 82.9436 32.1285 83.3341 32.2457L93.7581 35.3745C94.109 35.4795 94.4079 35.697 94.6008 35.9878C94.7938 36.2786 94.8682 36.6235 94.8106 36.9606C94.753 37.2976 94.5673 37.6046 94.2868 37.8262C94.0064 38.0477 93.6496 38.1693 93.2808 38.1691Z" fill="#00AEEF"/>
<path d="M152.488 56.9679C152.359 56.9678 152.231 56.953 152.106 56.9238L141.483 54.4325C141.087 54.3383 140.746 54.1024 140.537 53.7764C140.328 53.4504 140.267 53.0609 140.368 52.6935C140.468 52.326 140.722 52.0104 141.074 51.816C141.426 51.6215 141.847 51.5641 142.244 51.6562L152.867 54.1474C153.233 54.2331 153.552 54.4393 153.765 54.7275C153.978 55.0157 154.07 55.366 154.023 55.7124C153.977 56.0589 153.795 56.3777 153.512 56.6089C153.23 56.84 152.865 56.9677 152.488 56.9679Z" fill="#00AEEF"/>
<path d="M140.771 39.1187C140.437 39.1191 140.112 39.0197 139.844 38.8352C139.576 38.6506 139.38 38.3909 139.285 38.0948C139.19 37.7986 139.201 37.4819 139.316 37.192C139.431 36.902 139.645 36.6543 139.925 36.4859L150.848 29.9114C151.018 29.8088 151.209 29.7383 151.409 29.7039C151.608 29.6695 151.814 29.6718 152.012 29.7107C152.211 29.7497 152.4 29.8245 152.568 29.9309C152.735 30.0373 152.878 30.1732 152.989 30.3309C153.1 30.4885 153.176 30.6648 153.214 30.8497C153.251 31.0346 153.248 31.2245 153.206 31.4085C153.164 31.5924 153.083 31.767 152.968 31.922C152.853 32.0771 152.706 32.2097 152.536 32.3123L141.613 38.8868C141.362 39.0381 141.07 39.1186 140.771 39.1187Z" fill="#00AEEF"/>
<path d="M122.887 31.768C122.649 31.7681 122.414 31.7176 122.201 31.6203C121.988 31.5229 121.802 31.3815 121.657 31.2068C121.512 31.0322 121.413 30.8291 121.367 30.6132C121.321 30.3974 121.33 30.1746 121.392 29.9622L127.241 9.92326C127.292 9.73969 127.381 9.56731 127.505 9.41611C127.629 9.26492 127.783 9.13792 127.96 9.04248C128.137 8.94703 128.333 8.88504 128.536 8.86011C128.739 8.83517 128.945 8.84778 129.143 8.8972C129.341 8.94662 129.526 9.03187 129.688 9.14802C129.85 9.26416 129.985 9.40888 130.086 9.57379C130.187 9.7387 130.252 9.92051 130.276 10.1087C130.301 10.2969 130.285 10.4877 130.229 10.67L124.38 30.709C124.291 31.0128 124.097 31.2811 123.827 31.4725C123.557 31.6639 123.227 31.7678 122.887 31.768Z" fill="#00AEEF"/>
<path d="M133.539 32.1295C134.189 32.1295 134.715 31.6423 134.715 31.0413C134.715 30.4403 134.189 29.9531 133.539 29.9531C132.89 29.9531 132.363 30.4403 132.363 31.0413C132.363 31.6423 132.89 32.1295 133.539 32.1295Z" fill="#00AEEF"/>
<path d="M91.7859 23.3983C92.167 23.3983 92.476 23.1124 92.476 22.7597C92.476 22.407 92.167 22.1211 91.7859 22.1211C91.4047 22.1211 91.0957 22.407 91.0957 22.7597C91.0957 23.1124 91.4047 23.3983 91.7859 23.3983Z" fill="#00AEEF"/>
<path d="M115.359 18.135C116.385 18.135 117.217 17.365 117.217 16.4151C117.217 15.4653 116.385 14.6953 115.359 14.6953C114.332 14.6953 113.5 15.4653 113.5 16.4151C113.5 17.365 114.332 18.135 115.359 18.135Z" fill="#00AEEF"/>
<path d="M150.654 47.549C151.68 47.549 152.512 46.779 152.512 45.8292C152.512 44.8794 151.68 44.1094 150.654 44.1094C149.627 44.1094 148.795 44.8794 148.795 45.8292C148.795 46.779 149.627 47.549 150.654 47.549Z" fill="#00AEEF"/>
<path d="M157.255 155.465C157.08 155.465 156.912 155.401 156.788 155.286C156.663 155.171 156.594 155.015 156.594 154.853V149.159C156.594 148.997 156.663 148.841 156.788 148.726C156.912 148.611 157.08 148.547 157.255 148.547C157.431 148.547 157.599 148.611 157.723 148.726C157.847 148.841 157.917 148.997 157.917 149.159V154.853C157.917 155.015 157.847 155.171 157.723 155.286C157.599 155.401 157.431 155.465 157.255 155.465Z" fill="#5A646E"/>
<path d="M157.257 149.677C159.786 149.677 161.836 147.78 161.836 145.44C161.836 143.1 159.786 141.203 157.257 141.203C154.728 141.203 152.678 143.1 152.678 145.44C152.678 147.78 154.728 149.677 157.257 149.677Z" fill="#71D4FF"/>
<path d="M150.203 155.464C150.027 155.464 149.859 155.4 149.735 155.285C149.611 155.17 149.541 155.015 149.541 154.852V149.158C149.54 149.077 149.556 148.996 149.588 148.921C149.621 148.845 149.669 148.776 149.731 148.718C149.792 148.66 149.866 148.614 149.947 148.583C150.028 148.551 150.115 148.535 150.203 148.535C150.291 148.535 150.378 148.551 150.459 148.583C150.54 148.614 150.613 148.66 150.675 148.718C150.737 148.776 150.785 148.845 150.818 148.921C150.85 148.996 150.866 149.077 150.865 149.158V154.852C150.864 155.015 150.795 155.17 150.671 155.285C150.547 155.4 150.378 155.464 150.203 155.464Z" fill="#5A646E"/>
<path d="M150.202 150.333C152.731 150.333 154.781 148.436 154.781 146.096C154.781 143.756 152.731 141.859 150.202 141.859C147.673 141.859 145.623 143.756 145.623 146.096C145.623 148.436 147.673 150.333 150.202 150.333Z" fill="#145EB3"/>
<path d="M153.523 156.085C153.247 156.085 152.981 155.983 152.786 155.802C152.59 155.621 152.48 155.376 152.48 155.12V146.148C152.488 145.897 152.601 145.659 152.796 145.484C152.99 145.309 153.251 145.211 153.523 145.211C153.794 145.211 154.055 145.309 154.249 145.484C154.444 145.659 154.557 145.897 154.565 146.148V155.12C154.565 155.376 154.455 155.621 154.26 155.802C154.064 155.983 153.799 156.084 153.523 156.085Z" fill="#5A646E"/>
<path d="M153.523 148C157.508 148 160.738 145.011 160.738 141.324C160.738 137.637 157.508 134.648 153.523 134.648C149.539 134.648 146.309 137.637 146.309 141.324C146.309 145.011 149.539 148 153.523 148Z" fill="#00AEEF"/>
<path d="M155.447 167.333H151.952C151.469 167.333 150.991 167.245 150.544 167.074C150.098 166.903 149.693 166.652 149.351 166.336C149.01 166.02 148.739 165.645 148.554 165.232C148.37 164.82 148.274 164.377 148.274 163.93L147.303 155.635C147.303 155.025 147.564 154.44 148.03 154.009C148.496 153.578 149.128 153.336 149.787 153.336H157.406C158.064 153.336 158.696 153.578 159.162 154.009C159.628 154.44 159.89 155.025 159.89 155.635L159.124 163.93C159.124 164.833 158.737 165.698 158.048 166.336C157.358 166.974 156.423 167.333 155.447 167.333Z" fill="#231F20"/>
<path d="M146.827 159.733C146.827 159.468 146.77 159.206 146.661 158.961C146.551 158.716 146.39 158.493 146.188 158.306C145.985 158.119 145.745 157.97 145.48 157.868C145.216 157.767 144.932 157.715 144.645 157.715H137.957C137.67 157.715 137.386 157.767 137.122 157.868C136.857 157.97 136.617 158.119 136.414 158.306C136.212 158.493 136.051 158.716 135.941 158.961C135.832 159.206 135.775 159.468 135.775 159.733L135.958 161.003H146.683L146.827 159.733Z" fill="#231F20"/>
<path d="M136.63 165.678C136.63 166.47 136.97 167.23 137.576 167.79C138.181 168.351 139.002 168.665 139.859 168.665H142.928C143.784 168.665 144.605 168.351 145.21 167.79C145.816 167.23 146.156 166.47 146.156 165.678L146.248 164.867H136.514L136.63 165.678Z" fill="#231F20"/>
<path d="M136.098 161.977L136.373 163.894H146.357L146.574 161.977H136.098Z" fill="#231F20"/>
<path d="M146.684 161.004H135.959L136.098 161.976H146.574L146.684 161.004Z" fill="#00AEEF"/>
<path d="M136.513 164.867H146.247L146.357 163.895H136.373L136.513 164.867Z" fill="#00AEEF"/>
</svg>
