<svg width="32" height="32" viewBox="0 0 32 32" fill="none" xmlns="http://www.w3.org/2000/svg">
<path fill-rule="evenodd" clip-rule="evenodd" d="M16 6.66667C10.8453 6.66667 6.66667 10.8453 6.66667 16C6.66667 21.1547 10.8453 25.3333 16 25.3333C21.1547 25.3333 25.3333 21.1547 25.3333 16C25.3333 10.8453 21.1547 6.66667 16 6.66667ZM4 16C4 9.37258 9.37258 4 16 4C22.6274 4 28 9.37258 28 16C28 22.6274 22.6274 28 16 28C9.37258 28 4 22.6274 4 16Z" fill="#5A646E"/>
<path fill-rule="evenodd" clip-rule="evenodd" d="M11.7291 17.8611C11.2862 17.2768 10.4539 17.1596 9.86667 17.6C9.27756 18.0418 9.15817 18.8776 9.6 19.4667L10.6667 18.6667C9.6 19.4667 9.59967 19.4662 9.6 19.4667L9.60135 19.4685L9.60289 19.4705L9.60654 19.4753L9.61615 19.4879L9.64455 19.5242C9.66754 19.5533 9.69868 19.5918 9.73782 19.6384C9.81601 19.7316 9.92667 19.8578 10.0686 20.0059C10.3514 20.3009 10.7646 20.6896 11.2991 21.0783C12.363 21.8521 13.966 22.6667 16 22.6667C18.034 22.6667 19.637 21.8521 20.7009 21.0783C21.2354 20.6896 21.6486 20.3009 21.9314 20.0059C22.0733 19.8578 22.184 19.7316 22.2622 19.6384C22.3013 19.5918 22.3325 19.5533 22.3555 19.5242L22.3839 19.4879L22.3935 19.4753L22.3971 19.4705L22.3987 19.4685C22.399 19.468 22.4 19.4667 21.3333 18.6667L22.4 19.4667C22.8418 18.8776 22.7224 18.0418 22.1333 17.6C21.5461 17.1596 20.7138 17.2768 20.2709 17.8611L20.2647 17.869C20.2567 17.879 20.2416 17.8978 20.2196 17.9241C20.1754 17.9768 20.1037 18.0589 20.0061 18.1608C19.8097 18.3657 19.5146 18.6438 19.1324 18.9217C18.363 19.4813 17.2993 20 16 20C14.7007 20 13.637 19.4813 12.8676 18.9217C12.4854 18.6438 12.1903 18.3657 11.9939 18.1608C11.8963 18.0589 11.8246 17.9768 11.7804 17.9241C11.7584 17.8978 11.7433 17.879 11.7353 17.869L11.7291 17.8611Z" fill="#5A646E"/>
<path fill-rule="evenodd" clip-rule="evenodd" d="M10.6667 13.3333C10.6667 12.597 11.2636 12 12 12H12.0133C12.7497 12 13.3467 12.597 13.3467 13.3333C13.3467 14.0697 12.7497 14.6667 12.0133 14.6667H12C11.2636 14.6667 10.6667 14.0697 10.6667 13.3333Z" fill="#5A646E"/>
<path fill-rule="evenodd" clip-rule="evenodd" d="M18.6667 13.3333C18.6667 12.597 19.2636 12 20 12H20.0133C20.7497 12 21.3467 12.597 21.3467 13.3333C21.3467 14.0697 20.7497 14.6667 20.0133 14.6667H20C19.2636 14.6667 18.6667 14.0697 18.6667 13.3333Z" fill="#5A646E"/>
</svg>
