<svg width="90" height="48" viewBox="0 0 90 48" fill="none" xmlns="http://www.w3.org/2000/svg">
<path d="M63.9509 38.0586C63.9509 41.5021 61.5393 43.8264 58.3084 43.8264C56.4995 43.8264 54.9489 43.0517 54.0013 41.5881V47.8939H52.4722V32.3986H53.9366V34.6368C54.8626 33.1303 56.4348 32.3125 58.3083 32.3125C61.5393 32.3125 63.9509 34.6368 63.9509 38.0586ZM62.4219 38.0586C62.4219 35.4331 60.5913 33.6468 58.2008 33.6468C55.7892 33.6468 53.9797 35.4331 53.9797 38.0586C53.9797 40.7058 55.7888 42.4705 58.2008 42.4705C60.5912 42.4705 62.4217 40.7058 62.4217 38.0586H62.4219Z" fill="#00AEEF"/>
<path d="M75.5583 36.7029V43.7187H74.0938V41.954C73.4047 43.1161 72.0694 43.8264 70.1959 43.8264C67.6331 43.8264 66.061 42.4921 66.061 40.5336C66.061 38.7903 67.1809 37.3269 70.4328 37.3269H74.0292V36.6383C74.0292 34.7013 72.9309 33.6468 70.8204 33.6468C69.3559 33.6468 67.9774 34.1633 67.0517 34.9811L66.3625 33.8405C67.5039 32.872 69.1834 32.3125 70.9712 32.3125C73.9 32.3125 75.5583 33.776 75.5583 36.7029ZM74.0292 40.3178V38.467H70.4758C68.2791 38.467 67.5685 39.3278 67.5685 40.49C67.5685 41.8028 68.6237 42.6206 70.4328 42.6206C72.1556 42.6212 73.4262 41.8033 74.0292 40.3183V40.3178Z" fill="#00AEEF"/>
<path d="M89.0184 32.3984L83.3545 45.0744C82.4069 47.2911 81.2008 48.0013 79.5856 48.0013C78.5304 48.0013 77.5182 47.6569 76.8291 46.9682L77.5397 45.8277C77.8076 46.1042 78.1291 46.3232 78.4846 46.4713C78.8401 46.6193 79.2221 46.6932 79.6072 46.6885C80.6194 46.6885 81.3085 46.215 81.9546 44.7946L82.4499 43.6969L77.389 32.3989H78.9826L83.2467 42.0188L87.5108 32.3989L89.0184 32.3984Z" fill="#00AEEF"/>
<path d="M54.1247 0.535156C53.6172 0.535156 53.1304 0.73666 52.7715 1.09532C52.4126 1.45399 52.2109 1.94043 52.2109 2.44766V25.5366C52.2109 26.0438 52.4126 26.5302 52.7715 26.8889C53.1304 27.2476 53.6172 27.4491 54.1247 27.4491C54.6323 27.4491 55.1191 27.2476 55.478 26.8889C55.8369 26.5302 56.0385 26.0438 56.0385 25.5366V2.44766C56.0385 1.94043 55.8369 1.45399 55.478 1.09532C55.1191 0.73666 54.6323 0.535156 54.1247 0.535156Z" fill="white"/>
<path d="M23.0481 6.76172H23.048C21.9911 6.76172 21.1343 7.61792 21.1343 8.67411V25.5357C21.1343 26.5919 21.9911 27.4481 23.048 27.4481H23.0481C24.105 27.4481 24.9617 26.5919 24.9617 25.5357V8.67411C24.9617 7.61792 24.105 6.76172 23.0481 6.76172Z" fill="white"/>
<path d="M25.501 2.45127C25.501 3.80505 24.4028 4.85403 23.0481 4.85403C21.6934 4.85403 20.5952 3.80505 20.5952 2.45127C20.5952 1.80115 20.8536 1.17767 21.3137 0.717974C21.7737 0.258274 22.3976 0 23.0481 0C23.6987 0 24.3226 0.258274 24.7826 0.717974C25.2426 1.17767 25.501 1.80115 25.501 2.45127Z" fill="#00AEEF"/>
<path d="M48.7522 12.8659C46.9138 8.71094 42.5627 5.78381 37.599 6.28173C32.3651 6.80683 28.2274 11.0812 27.854 16.3244C27.7028 18.4172 28.1588 20.5092 29.1674 22.3496C30.176 24.1899 31.6943 25.7005 33.5403 26.7003C35.3863 27.7001 37.4816 28.1466 39.5752 27.9862C41.6687 27.8259 43.6716 27.0657 45.3436 25.7965C45.5689 25.6242 45.7528 25.4038 45.8818 25.1513C46.0107 24.8988 46.0815 24.6206 46.0889 24.3372C46.0964 24.0538 46.0402 23.7724 45.9247 23.5135C45.8091 23.2546 45.637 23.0248 45.421 22.841C45.0921 22.5589 44.6766 22.3977 44.2434 22.3841C43.8102 22.3705 43.3854 22.5054 43.0394 22.7662C41.7139 23.7874 40.0671 24.3021 38.3956 24.2177C37.0353 24.1468 35.7235 23.6898 34.614 22.9001C33.5045 22.1105 32.6433 21.021 32.1316 19.7595C32.0852 19.6469 32.0672 19.5246 32.0793 19.4034C32.0913 19.2822 32.133 19.1659 32.2006 19.0645C32.2682 18.9632 32.3598 18.8801 32.4671 18.8225C32.5745 18.7648 32.6944 18.7345 32.8163 18.7341H46.1033C46.528 18.7355 46.9489 18.6533 47.3418 18.492C47.7347 18.3307 48.0919 18.0935 48.3929 17.7941C48.694 17.4947 48.933 17.1388 49.0963 16.747C49.2596 16.3551 49.3439 15.9349 49.3445 15.5105C49.3444 14.5568 49.0316 13.4974 48.7522 12.8659ZM38.729 10.0191C40.1513 10.0191 41.541 10.4456 42.7182 11.2434C43.8954 12.0412 44.806 13.1735 45.3322 14.4941C45.3771 14.6065 45.3937 14.7282 45.3807 14.8486C45.3677 14.9689 45.3253 15.0843 45.2574 15.1845C45.1895 15.2847 45.0981 15.3669 44.9911 15.4236C44.8841 15.4804 44.7648 15.5101 44.6437 15.5102H32.8139C32.6928 15.5101 32.5735 15.4804 32.4666 15.4236C32.3596 15.3669 32.2681 15.2847 32.2002 15.1845C32.1323 15.0843 32.09 14.9689 32.0769 14.8486C32.0639 14.7282 32.0805 14.6065 32.1254 14.4941C32.6517 13.1735 33.5624 12.0411 34.7396 11.2433C35.9169 10.4455 37.3066 10.0191 38.729 10.0191Z" fill="white"/>
<path d="M69.8052 24.2243C68.4416 24.2247 67.1067 23.8331 65.9597 23.0961C64.8127 22.3591 63.9022 21.3078 63.3368 20.0678C62.7714 18.8278 62.5749 17.4514 62.7709 16.1028C62.9669 14.7543 63.547 13.4906 64.4421 12.4625L61.5559 9.99609C60.6161 11.0822 59.9005 12.3433 59.45 13.7067C58.9996 15.0702 58.8233 16.5092 58.9312 17.941C59.0391 19.3727 59.4292 20.7691 60.0789 22.0497C60.7286 23.3304 61.6253 24.4701 62.7172 25.4033C63.8092 26.3365 65.075 27.0448 66.4418 27.4875C67.8086 27.9302 69.2495 28.0986 70.6816 27.9829C72.1138 27.8673 73.5089 27.4699 74.7869 26.8137C76.0648 26.1574 77.2004 25.2552 78.1283 24.1589L75.2432 21.6937C74.5769 22.487 73.7447 23.1246 72.8051 23.5619C71.8656 23.9991 70.8416 24.2252 69.8052 24.2243Z" fill="white"/>
<path d="M69.8054 6.22689C68.2399 6.22521 66.6924 6.56125 65.2687 7.21206C63.845 7.86286 62.5787 8.81309 61.5562 9.99783L64.4423 12.4643C65.672 11.0494 67.4115 10.1777 69.2816 10.039C71.1518 9.90035 73.0009 10.506 74.4261 11.724C75.8513 12.942 76.7369 14.6736 76.89 16.5413C77.0431 18.4091 76.4513 20.2616 75.2435 21.6951L78.1285 24.1603C79.4717 22.5742 80.333 20.6372 80.6109 18.5779C80.8887 16.5187 80.5715 14.4229 79.6967 12.5379C78.8218 10.6528 77.4258 9.05707 75.6733 7.93883C73.9207 6.82058 71.8848 6.22648 69.8054 6.22656V6.22689Z" fill="#00AEEF"/>
<path d="M17.6102 22.852C17.2806 22.5664 16.863 22.4021 16.427 22.3864C15.991 22.3707 15.5627 22.5046 15.2133 22.7658C14.1607 23.5693 12.9044 24.063 11.5861 24.1912C10.2677 24.3193 8.93975 24.0768 7.75193 23.491C6.56411 22.9053 5.5637 21.9995 4.8635 20.8758C4.1633 19.7522 3.79118 18.4554 3.7891 17.1318C3.78701 15.8081 4.15505 14.5101 4.8517 13.3843C5.54835 12.2585 6.5459 11.3495 7.73187 10.76C8.91784 10.1705 10.245 9.92382 11.5638 10.0478C12.8825 10.1718 14.1404 10.6616 15.1955 11.4618C15.5412 11.7276 15.9676 11.867 16.4036 11.8565C16.8397 11.846 17.2589 11.6864 17.5914 11.4043C17.8061 11.2217 17.9773 10.9937 18.0927 10.7366C18.208 10.4795 18.2645 10.2 18.2581 9.91835C18.2517 9.63671 18.1825 9.36005 18.0556 9.10851C17.9286 8.85696 17.7472 8.63687 17.5244 8.46427C15.4215 6.85293 12.8019 6.06505 10.1584 6.24886C4.67148 6.61367 0.27973 11.0874 0.0131275 16.5764C-0.0909151 18.6551 0.403012 20.7201 1.43648 22.5271C2.46994 24.3341 3.9997 25.8075 5.84479 26.773C7.68987 27.7384 9.77307 28.1556 11.8479 27.9751C13.9228 27.7946 15.9025 27.0239 17.5529 25.7544C17.7718 25.583 17.9498 25.365 18.074 25.1164C18.1982 24.8678 18.2654 24.5946 18.2709 24.3168C18.2764 24.0389 18.22 23.7633 18.1057 23.51C17.9914 23.2566 17.8222 23.0319 17.6102 22.852Z" fill="white"/>
</svg>
