<svg width="184" height="184" viewBox="0 0 184 184" fill="none" xmlns="http://www.w3.org/2000/svg">
<path d="M20.7891 93.4219H17.8262V122.704H20.7891V93.4219Z" fill="#F2F4F8"/>
<path d="M132.772 32.0713C127.52 28.3581 121.961 25.0961 116.156 22.3203V32.0713H132.772Z" fill="#F2F4F8"/>
<path d="M86.3431 32.0714C86.5557 31.8372 86.815 31.6501 87.1044 31.522C87.3939 31.3939 87.7071 31.3277 88.0238 31.3277C88.3405 31.3277 88.6536 31.3939 88.9431 31.522C89.2326 31.6501 89.4919 31.8372 89.7044 32.0714H112.429V20.659C103.76 17.0234 94.532 14.7578 84.9951 14.7578C80.7147 14.7564 76.4428 15.137 72.2305 15.8951V32.0714H86.3431Z" fill="#F2F4F8"/>
<path d="M90.299 39.5414H93.0655C93.6689 39.5414 94.2475 39.7805 94.6742 40.2061C95.1008 40.6316 95.3405 41.2088 95.3406 41.8106V47.7556H98.0808C98.3795 47.7556 98.6753 47.8143 98.9514 47.9284C99.2274 48.0424 99.4782 48.2096 99.6894 48.4203C99.9006 48.631 100.068 48.8812 100.183 49.1565C100.297 49.4318 100.356 49.7269 100.356 50.0249V55.9691H103.108C103.711 55.9691 104.29 56.2082 104.716 56.6338C105.143 57.0593 105.383 57.6365 105.383 58.2384V62.2816H112.429V33H90.2168C90.2706 33.1941 90.2983 33.3945 90.299 33.5959V39.5414Z" fill="#F2F4F8"/>
<path d="M110.005 66.8012V92.4927H112.429V63.2109H105.383V66.8012H110.005Z" fill="#F2F4F8"/>
<path d="M120.5 93.4219H116.156V122.704H120.5V93.4219Z" fill="#F2F4F8"/>
<path d="M160.084 122.704H163.66C164.94 119.744 165.853 116.64 166.38 113.46C166.564 112.342 166.751 111.123 166.928 109.823C167.678 108.952 168.408 108.185 169.074 107.549C173.147 103.659 176.158 98.7966 177.822 93.4219H160.084V122.704Z" fill="#F2F4F8"/>
<path d="M160.084 129.333C161.28 127.516 162.337 125.612 163.246 123.637H160.084V129.333Z" fill="#F2F4F8"/>
<path d="M112.428 93.4219H110.004V122.704H112.428V93.4219Z" fill="#F2F4F8"/>
<path d="M61.2706 153.848H57.5664V157.111H61.2706V153.848Z" fill="#F2F4F8"/>
<path d="M160.084 92.4927H178.094C179.475 87.4861 179.652 82.2254 178.612 77.1377C177.571 72.05 175.343 67.2786 172.107 63.2109H160.084V92.4927Z" fill="#F2F4F8"/>
<path d="M171.337 62.2819C168.239 58.6784 164.402 55.7808 160.084 53.7852V62.2819H171.337Z" fill="#F2F4F8"/>
<path d="M68.5026 16.6719C62.8476 18.0066 57.3787 20.0302 52.2191 22.6971C51.7347 22.9477 46.8364 25.2089 40.6857 30.1457C39.9053 30.772 39.1383 31.4143 38.3848 32.0727H68.502L68.5026 16.6719Z" fill="#F2F4F8"/>
<path d="M156.355 93.4219H146.408V122.704H156.355V93.4219Z" fill="#F2F4F8"/>
<path d="M116.156 149.975C116.849 149.699 117.565 149.483 118.294 149.326H117.407V141.263H120.5V123.637H116.156V149.975Z" fill="#F2F4F8"/>
<path d="M28.5568 48.7288C28.7939 48.1292 29.0819 47.5508 29.4176 46.9999C29.5129 46.8434 29.6117 46.6895 29.7143 46.5381C29.7655 46.4624 29.8177 46.3873 29.8709 46.3128C29.9769 46.164 30.0864 46.0179 30.1994 45.8746C30.2557 45.8029 30.3133 45.732 30.3714 45.6616C30.8366 45.0992 31.3547 44.5825 31.9184 44.1185C31.989 44.0605 32.0602 44.0033 32.132 43.947C32.2757 43.8342 32.4222 43.725 32.5714 43.6192C32.646 43.5662 32.7211 43.5141 32.797 43.463C32.9488 43.3607 33.1032 43.2621 33.2602 43.1671C33.3388 43.1194 33.4179 43.0724 33.4974 43.0261C33.8162 42.8433 34.1442 42.6756 34.4816 42.5228C34.5657 42.4847 34.6504 42.4477 34.7358 42.4117C34.9066 42.3399 35.0795 42.272 35.2544 42.208C35.4293 42.144 35.606 42.0843 35.7846 42.029C35.9631 41.9737 36.1437 41.9226 36.3261 41.8756C36.5086 41.8286 36.6926 41.7862 36.8783 41.7484C37.157 41.6916 37.4391 41.645 37.7248 41.6087C37.82 41.5966 37.9156 41.5857 38.0115 41.5761C38.2033 41.5565 38.3965 41.5418 38.5912 41.532C38.7859 41.5222 38.9817 41.5173 39.1786 41.5173C42.2056 41.5173 45.1087 42.7167 47.2491 44.8516C49.3895 46.9866 50.5919 49.8822 50.5919 52.9015V54.6634H53.3054V62.28H68.5034V33H37.3384C34.0346 35.9922 31.0109 39.2783 28.3047 42.8176V49.4409C28.3249 49.3777 28.3434 49.3138 28.3652 49.251C28.4247 49.0752 28.4886 48.9011 28.5568 48.7288Z" fill="#F2F4F8"/>
<path d="M146.408 138.34H148.625V132.497H150.842V130.977H155.276V132.497H156.355V123.637H146.408V138.34Z" fill="#F2F4F8"/>
<path d="M156.355 62.2816V52.3305C155.213 51.9626 154.051 51.6575 152.876 51.4166C149.67 46.6021 146.414 42.8226 143.33 40.2204C140.408 37.7541 137.319 35.3232 134.084 33H116.156V62.2816H156.355Z" fill="#F2F4F8"/>
<path d="M75.6919 55.9691V50.0249C75.6918 49.7269 75.7506 49.4318 75.8649 49.1565C75.9792 48.8811 76.1469 48.631 76.3582 48.4202C76.5694 48.2095 76.8202 48.0424 77.0962 47.9283C77.3722 47.8143 77.6681 47.7556 77.9669 47.7556H80.7059V41.8106C80.7059 41.2088 80.9456 40.6316 81.3722 40.2061C81.7988 39.7805 82.3774 39.5414 82.9808 39.5414H85.7487V33.5959C85.7493 33.3945 85.7769 33.1941 85.8307 33H72.2305V56.0827C72.4589 56.0076 72.6978 55.9693 72.9383 55.9691H75.6919Z" fill="#F2F4F8"/>
<path d="M120.5 92.4927V74.383H129.104V72.0658H131.32V70.5465H135.754V72.0658H137.971V74.383H146.408V92.4927H156.354V63.2109H116.156V92.4927H120.5Z" fill="#F2F4F8"/>
<path d="M66.0414 93.4219H57.5664V122.704H66.0414V93.4219Z" fill="#F2F4F8"/>
<path d="M63.3368 149.468H66.0414V123.637H57.5664V152.918H61.2706V151.529C61.2706 150.983 61.4883 150.458 61.8757 150.072C62.2632 149.685 62.7888 149.468 63.3368 149.468Z" fill="#F2F4F8"/>
<path d="M24.5753 44.5039C16.8574 48.049 10.7979 54.4133 7.64648 62.2841H24.5753V44.5039Z" fill="#F2F4F8"/>
<path d="M66.0423 70.3595V66.8012H68.5046V63.2109H53.3066V82.1767H57.5681V92.4927H66.043L66.0423 70.3595Z" fill="#F2F4F8"/>
<path d="M20.7891 123.637H17.8262V137.837C18.6736 139.998 19.6634 142.1 20.7891 144.131V123.637Z" fill="#F2F4F8"/>
<path d="M112.428 123.637H110.004V149.468H112.428V123.637Z" fill="#F2F4F8"/>
<path d="M17.826 70.1767V70.2956C18.1496 70.4214 18.4276 70.6417 18.6236 70.9276C18.8196 71.2136 18.9244 71.5519 18.9244 71.8983C18.9244 72.2447 18.8196 72.583 18.6236 72.869C18.4276 73.155 18.1496 73.3752 17.826 73.501V92.4927H20.789V82.1765H24.5753V63.2109H7.28959C6.46771 65.4636 5.89641 67.7994 5.58594 70.1765H17.826V70.1767Z" fill="#F2F4F8"/>
<path d="M66.0411 149.468H63.3364C62.7882 149.468 62.2626 149.685 61.8749 150.071C61.4873 150.458 61.2695 150.982 61.2695 151.529V152.918H68.5018V123.637H66.0394L66.0411 149.468Z" fill="#EAEEF3"/>
<path d="M24.5756 82.1797H20.7891V92.4957H24.5756V82.1797Z" fill="#EAEEF3"/>
<path d="M57.5671 93.4219H28.3047V122.704H57.5671V93.4219Z" fill="#EAEEF3"/>
<path d="M17.8281 93.4219H10.0957C10.9806 96.0875 11.7244 98.7976 12.3241 101.541C12.9078 104.281 13.32 107.076 13.6044 109.652C13.5237 110.697 13.4754 111.751 13.4689 112.815C13.4515 115.665 13.7129 118.51 14.2494 121.309C14.2728 121.744 14.2997 122.18 14.334 122.617C14.3364 122.646 14.3396 122.675 14.3421 122.704H17.8281V93.4219Z" fill="#EAEEF3"/>
<path d="M14.4258 123.637C14.8971 128.504 16.0417 133.283 17.8271 137.837V123.637H14.4258Z" fill="#EAEEF3"/>
<path d="M105.383 62.2816V58.2384C105.383 57.6365 105.143 57.0593 104.716 56.6338C104.29 56.2082 103.711 55.9691 103.108 55.9691H100.355V50.0249C100.355 49.7269 100.297 49.4318 100.182 49.1565C100.068 48.8812 99.9004 48.631 99.6891 48.4203C99.4779 48.2096 99.2271 48.0424 98.9511 47.9284C98.6751 47.8143 98.3792 47.7556 98.0805 47.7556H95.3403V41.8106C95.3402 41.2088 95.1005 40.6316 94.6739 40.2061C94.2472 39.7805 93.6686 39.5414 93.0652 39.5414H90.2987V33.5959C90.298 33.3945 90.2703 33.1941 90.2165 33H85.8307C85.7769 33.1941 85.7494 33.3945 85.7488 33.5959V39.5414H82.9808C82.3774 39.5414 81.7989 39.7805 81.3722 40.2061C80.9456 40.6316 80.7059 41.2088 80.7059 41.8106V47.7556H77.9669C77.6681 47.7556 77.3723 47.8143 77.0962 47.9283C76.8202 48.0424 76.5694 48.2095 76.3582 48.4202C76.1469 48.631 75.9792 48.8811 75.8649 49.1565C75.7506 49.4318 75.6918 49.7269 75.6919 50.0249V55.9691H72.9383C72.6978 55.9693 72.4589 56.0076 72.2305 56.0827V62.2816H105.383Z" fill="#EAEEF3"/>
<path d="M146.408 93.4219H120.5V122.704H146.408V93.4219Z" fill="#EAEEF3"/>
<path d="M53.3041 62.2822V54.6657H50.5904V52.9037C50.5904 49.8845 49.388 46.9888 47.2476 44.8539C45.1071 42.7189 42.2041 41.5195 39.177 41.5195C38.98 41.5195 38.7842 41.5244 38.5897 41.5342C38.3951 41.544 38.2019 41.5587 38.01 41.5783C37.9142 41.588 37.8186 41.5989 37.7232 41.6109C37.4376 41.6472 37.1554 41.6937 36.8768 41.7506C36.6911 41.7886 36.5069 41.831 36.3245 41.8779C36.142 41.9247 35.9616 41.9759 35.783 42.0313C35.6042 42.0866 35.4275 42.1462 35.2528 42.2102C35.0782 42.2743 34.9053 42.3422 34.7343 42.414C34.6491 42.45 34.5644 42.487 34.48 42.5251C34.1436 42.677 33.8156 42.8448 33.4959 43.0284C33.4161 43.0742 33.337 43.1211 33.2587 43.1693C33.1019 43.2643 32.9475 43.363 32.7955 43.4653C32.7199 43.5164 32.6447 43.5685 32.5699 43.6215C32.4207 43.7271 32.2742 43.8363 32.1304 43.9492C32.0586 44.0056 31.9874 44.0628 31.9169 44.1207C31.3531 44.5848 30.8351 45.1015 30.3698 45.6638C30.3117 45.7343 30.2542 45.8047 30.1979 45.8768C30.085 46.0202 29.9755 46.1662 29.8693 46.3151C29.8163 46.3896 29.7641 46.4647 29.7127 46.5403C29.6102 46.6917 29.5112 46.8457 29.416 47.0022C29.0803 47.553 28.7924 48.1314 28.5552 48.7311C28.487 48.9034 28.423 49.0779 28.3632 49.2545C28.3419 49.3173 28.3229 49.3811 28.3027 49.4443V62.2843L53.3041 62.2822Z" fill="#EAEEF3"/>
<path d="M155.277 130.977H150.843V132.497H148.626V138.339H146.409V123.637H120.5V141.263H117.408V149.326H118.295C119.146 149.143 120.014 149.049 120.885 149.048C121.65 149.072 122.405 149.226 123.119 149.503C124.235 150.796 125.51 151.944 126.913 152.918H150.48C151.072 152.406 151.628 151.854 152.144 151.265C153.844 149.715 155.268 147.887 156.356 145.861V132.497H155.277V130.977Z" fill="#EAEEF3"/>
<path d="M24.5754 123.637H20.7891V144.131C21.9202 146.169 23.185 148.13 24.5754 150.001V123.637Z" fill="#EAEEF3"/>
<path d="M5.41072 77.051C5.6621 80.2911 6.39242 83.4763 7.57785 86.5034C8.08102 87.7866 8.90996 89.9102 9.7849 92.4957H17.8266V73.504C18.1502 73.3783 18.4282 73.158 18.6242 72.872C18.8202 72.5861 18.925 72.2477 18.925 71.9013C18.925 71.5549 18.8202 71.2166 18.6242 70.9307C18.4282 70.6447 18.1502 70.4244 17.8266 70.2987V70.1797H5.58654C5.28913 72.4578 5.23019 74.7607 5.41072 77.051Z" fill="#EAEEF3"/>
<path d="M110.005 92.4927V66.8012H105.383V63.2109H72.2305V92.4927H110.005Z" fill="#EAEEF3"/>
<path d="M72.2305 171.291C85.6076 170.079 98.0238 163.844 106.967 153.848H72.2305V171.291Z" fill="#EAEEF3"/>
<path d="M68.5025 93.4219H66.041V122.704H68.5025V93.4219Z" fill="#EAEEF3"/>
<path d="M112.429 149.468H110.005V123.637H72.2305V152.918H109.08C110.21 152.515 111.327 152.083 112.43 151.623L112.429 149.468Z" fill="#EAEEF3"/>
<path d="M57.5669 84.0036V82.1767H53.3055V63.2109H28.3047V92.4927H57.5669V84.0036Z" fill="#EAEEF3"/>
<path d="M24.5756 93.4219H20.7891V122.704H24.5756V93.4219Z" fill="#EAEEF3"/>
<path d="M57.5671 123.637H28.3047V152.918H57.5671V123.637Z" fill="#EAEEF3"/>
<path d="M110.005 93.4219H72.2305V122.704H110.005V93.4219Z" fill="#EAEEF3"/>
<path d="M88.0244 31.3281C87.7078 31.3281 87.3945 31.3942 87.1051 31.5223C86.8156 31.6504 86.5562 31.8376 86.3438 32.0718H89.705C89.4925 31.8376 89.2332 31.6505 88.9437 31.5224C88.6542 31.3943 88.3411 31.3281 88.0244 31.3281Z" fill="#EAEEF3"/>
<path d="M68.5034 66.8047H66.041V92.4962H68.5034V66.8047Z" fill="#EAEEF3"/>
<path d="M133.649 155.966C136.231 156.929 139.013 157.239 141.745 156.87C144.477 156.5 147.075 155.462 149.307 153.848H128.377C130.025 154.798 131.8 155.512 133.649 155.966Z" fill="#EAEEF3"/>
<path d="M146.41 74.3834H137.973V72.0662H135.756V70.5469H131.323V72.0662H129.107V74.3834H120.502V92.4931H146.41L146.41 74.3834Z" fill="#EAEEF3"/>
<path d="M61.2711 153.848V157.111H57.5669V153.848H28.3047V154.49C33.4122 160.007 39.6379 164.378 46.5686 167.312C53.4993 170.245 60.9763 171.675 68.5034 171.506V153.848H61.2711Z" fill="#EAEEF3"/>
<path d="M91.2919 176.335C137.221 176.335 174.453 173.35 174.453 169.668C174.453 165.985 137.221 163 91.2919 163C45.3633 163 8.13086 165.985 8.13086 169.668C8.13086 173.35 45.3633 176.335 91.2919 176.335Z" fill="#F2F4F8"/>
<path d="M90.8136 173.528C117.488 173.528 139.112 172.272 139.112 170.721C139.112 169.171 117.488 167.914 90.8136 167.914C64.1394 167.914 42.5156 169.171 42.5156 170.721C42.5156 172.272 64.1394 173.528 90.8136 173.528Z" fill="#EAEEF3"/>
<path d="M48.4147 16.0628L48.4023 162.375C48.4023 167.012 52.0731 170.771 56.602 170.772L125.386 170.778C129.915 170.778 133.587 167.019 133.588 162.383L133.6 16.0713C133.6 11.434 129.929 7.67441 125.4 7.67401L56.6159 7.66797C52.0868 7.66676 48.4151 11.4255 48.4147 16.0628Z" fill="#5A646E"/>
<path d="M123.315 17.5605L58.9027 17.5547C56.1122 17.5547 53.8487 19.8684 53.8442 22.7259L53.6328 150.925C53.6284 153.788 55.8934 156.112 58.6903 156.112L123.304 156.118C126.097 156.118 128.362 153.8 128.362 150.939L128.373 22.74C128.373 19.8797 126.109 17.5607 123.315 17.5605Z" fill="#EAEEF3"/>
<path d="M121.257 15.5361C122.597 15.5361 123.683 14.4236 123.683 13.0512C123.683 11.6789 122.597 10.5664 121.257 10.5664C119.917 10.5664 118.83 11.6789 118.83 13.0512C118.83 14.4236 119.917 15.5361 121.257 15.5361Z" fill="#8A99A8"/>
<path d="M81.1878 163.611V163.289C81.1747 164.298 81.5639 165.272 82.27 165.995C82.9761 166.718 83.9411 167.132 84.953 167.145L97.0377 167.146C98.0495 167.133 99.0147 166.719 99.7209 165.996C100.427 165.273 100.817 164.3 100.804 163.291V163.613C100.817 162.604 100.427 161.631 99.7209 160.908C99.0147 160.185 98.0495 159.771 97.0377 159.758H84.9528C83.9414 159.771 82.9768 160.185 82.2708 160.907C81.5648 161.63 81.1753 162.602 81.1878 163.611Z" fill="#8A99A8"/>
<path d="M26.364 170.983C33.9271 170.983 40.0581 170.296 40.0581 169.449C40.0581 168.601 33.9271 167.914 26.364 167.914C18.801 167.914 12.6699 168.601 12.6699 169.449C12.6699 170.296 18.801 170.983 26.364 170.983Z" fill="#EAEEF3"/>
<path d="M36.2584 131.758L31.6691 127.744C31.5706 127.659 31.4563 127.595 31.3326 127.554C31.2089 127.513 31.0783 127.497 30.9483 127.507C30.8184 127.516 30.6917 127.551 30.5754 127.61C30.4592 127.669 30.3557 127.75 30.2709 127.849C30.101 128.047 30.0165 128.304 30.0359 128.563C30.0554 128.823 30.1771 129.065 30.3746 129.236L34.972 133.256C35.465 133.677 36.1581 133.685 36.5119 133.273C36.8659 132.861 36.7515 132.179 36.2584 131.758Z" fill="#FFCE94"/>
<path d="M29.7413 138.52L36.3958 133.448C36.4992 133.369 36.5859 133.27 36.6509 133.158C36.7159 133.045 36.7578 132.921 36.7745 132.792C36.7911 132.663 36.7821 132.532 36.7479 132.407C36.7136 132.281 36.6548 132.164 36.5749 132.061C36.4146 131.855 36.1792 131.721 35.92 131.688C35.6609 131.654 35.3991 131.725 35.1918 131.884L28.5286 136.961C28.0156 137.358 27.8687 138.034 28.2021 138.463C28.5358 138.891 29.2282 138.917 29.7413 138.52Z" fill="#FFCE94"/>
<path d="M29.5892 138.637L32.8185 136.175L31.6056 134.617L28.3776 137.079C28.171 137.24 28.0367 137.476 28.0039 137.735C27.9711 137.994 28.0425 138.256 28.2026 138.463C28.3639 138.669 28.6002 138.803 28.8599 138.835C29.1196 138.868 29.3818 138.797 29.5892 138.637Z" fill="#145EB3"/>
<path d="M31.1752 129.812C31.9573 129.445 32.2929 128.515 31.9247 127.735C31.5565 126.955 30.624 126.62 29.8419 126.987C29.0598 127.355 28.7242 128.285 29.0924 129.065C29.4606 129.845 30.3931 130.18 31.1752 129.812Z" fill="#FFCE94"/>
<path d="M26.3263 151.854C23.6979 152.073 21.3944 150.426 21.1447 147.439L20.6319 141.306C20.382 138.319 22.6869 136.103 25.3156 135.885C27.9443 135.666 29.9408 137.524 30.1904 140.511L30.7033 146.644C30.9536 149.632 28.9554 151.635 26.3263 151.854Z" fill="#00AEEF"/>
<path d="M26.3332 151.938C23.7048 152.157 21.4217 150.753 21.2025 148.131L21.1445 147.44L30.7033 146.645L30.761 147.336C30.9804 149.958 28.9619 151.72 26.3332 151.938Z" fill="#231F20"/>
<path d="M23.2924 126.915L25.041 126.742C25.2149 126.725 25.3885 126.777 25.5237 126.887C25.6589 126.998 25.7446 127.157 25.7619 127.331L26.7025 136.76C26.7429 137.165 26.6204 137.569 26.362 137.884C26.1036 138.198 25.7305 138.398 25.3247 138.438C24.9189 138.478 24.5137 138.356 24.1983 138.098C23.8828 137.841 23.6829 137.469 23.6426 137.064L22.702 127.634C22.6847 127.461 22.7371 127.288 22.8479 127.153C22.9586 127.018 23.1185 126.933 23.2924 126.915V126.915Z" fill="#F4BF87"/>
<path d="M21.2773 129.348L28.8409 128.168L29.4322 131.939C29.589 132.94 29.3411 133.961 28.7428 134.779C28.1446 135.597 27.2451 136.145 26.2422 136.301C25.7455 136.379 25.2385 136.358 24.7499 136.24C24.2613 136.122 23.8008 135.909 23.3947 135.614C22.9885 135.318 22.6447 134.946 22.3829 134.518C22.1211 134.09 21.9463 133.615 21.8686 133.119L21.2773 129.348Z" fill="#FFCE94"/>
<path d="M22.2941 126.968C21.72 127.058 21.2051 127.371 20.8626 127.839C20.52 128.307 20.378 128.892 20.4677 129.464L20.6196 130.433L20.661 130.697L21.0627 133.259L21.4107 133.205C21.609 133.174 21.7868 133.066 21.9051 132.904C22.0234 132.742 22.0726 132.54 22.0416 132.343L21.9146 131.534C21.8938 131.401 21.8994 131.266 21.931 131.136C21.9627 131.006 22.0197 130.883 22.0989 130.775C22.178 130.667 22.2777 130.575 22.3924 130.505C22.507 130.436 22.6343 130.389 22.767 130.369L28.4712 129.479C29.0452 129.389 29.5601 129.076 29.9025 128.608C30.245 128.14 30.387 127.555 30.2973 126.982L30.1042 125.75L22.2941 126.968Z" fill="#231F20"/>
<path d="M21.6619 131.237L22.1734 131.157L22.5121 133.317L22.0006 133.397C21.865 133.418 21.7266 133.385 21.6157 133.304C21.5049 133.224 21.4306 133.102 21.4092 132.967L21.2304 131.827C21.2092 131.691 21.2427 131.553 21.3236 131.442C21.4045 131.332 21.5262 131.258 21.6619 131.237V131.237Z" fill="#EFBB81"/>
<path d="M30.8483 159.074C30.764 158.459 30.1963 158.029 29.5803 158.113C28.9642 158.197 28.5331 158.764 28.6174 159.378L29.8135 168.101C29.8977 168.715 30.4654 169.145 31.0815 169.061C31.6975 168.977 32.1286 168.411 32.0443 167.797L30.8483 159.074Z" fill="#231F20"/>
<path d="M29.6608 150.406C29.5765 149.791 29.0088 149.361 28.3928 149.445C27.7767 149.53 27.3456 150.096 27.4299 150.71L28.626 159.433C28.7102 160.047 29.2779 160.477 29.894 160.393C30.51 160.309 30.9411 159.743 30.8568 159.129L29.6608 150.406Z" fill="#231F20"/>
<path d="M29.6914 167.867H32.3651C32.7647 167.867 33.1479 168.026 33.4305 168.307C33.713 168.589 33.8718 168.971 33.8718 169.37V169.911H29.6914V167.867Z" fill="#353A40"/>
<path d="M20.7498 167.794C20.6656 168.408 21.0967 168.975 21.7127 169.059C22.3287 169.143 22.8964 168.713 22.9807 168.098L24.1767 159.376C24.261 158.761 23.8299 158.195 23.2139 158.111C22.5978 158.027 22.0301 158.457 21.9459 159.071L20.7498 167.794Z" fill="#231F20"/>
<path d="M21.9374 159.125C21.8528 159.739 22.2838 160.306 22.8999 160.39C23.5161 160.475 24.0842 160.045 24.1687 159.43L25.3691 150.705C25.4537 150.091 25.0227 149.524 24.4066 149.44C23.7904 149.355 23.2223 149.785 23.1378 150.4L21.9374 159.125Z" fill="#231F20"/>
<path d="M23.1035 169.91L18.9232 169.913L18.9228 169.372C18.9225 168.973 19.081 168.591 19.3634 168.309C19.5032 168.169 19.6692 168.058 19.852 167.983C20.0347 167.907 20.2306 167.868 20.4285 167.868L23.1022 167.866L23.1035 169.91Z" fill="#353A40"/>
<path d="M17.6216 133.571L22.4368 129.831C22.5392 129.75 22.6245 129.65 22.6881 129.537C22.7516 129.424 22.792 129.299 22.807 129.17C22.822 129.041 22.8113 128.91 22.7755 128.785C22.7397 128.66 22.6795 128.543 22.5984 128.442C22.4354 128.238 22.1982 128.107 21.9386 128.077C21.6789 128.047 21.418 128.121 21.2127 128.282L16.389 132.029C15.8814 132.433 15.7431 133.111 16.0826 133.535C16.4211 133.959 17.114 133.975 17.6216 133.571Z" fill="#FFCE94"/>
<path d="M22.9417 138.801L17.646 132.33C17.5634 132.229 17.4617 132.146 17.3467 132.085C17.2317 132.024 17.1057 131.986 16.976 131.973C16.8462 131.961 16.7154 131.974 16.5908 132.012C16.4663 132.05 16.3504 132.113 16.2501 132.196C16.049 132.362 15.9221 132.601 15.8971 132.861C15.8721 133.12 15.9511 133.379 16.1168 133.58L21.4193 140.059C21.8339 140.558 22.5154 140.683 22.9342 140.336C23.3528 139.991 23.3563 139.3 22.9417 138.801Z" fill="#FFCE94"/>
<path d="M23.0641 138.948L20.4931 135.809L18.9707 137.068L21.5417 140.207C21.7096 140.408 21.9502 140.534 22.2112 140.558C22.4721 140.582 22.7321 140.503 22.9343 140.336C23.1354 140.169 23.2619 139.929 23.2862 139.669C23.3106 139.409 23.2307 139.149 23.0641 138.948Z" fill="#00AEEF"/>
<path d="M23.7073 129.481C24.0249 128.679 23.6307 127.772 22.8267 127.455C22.0228 127.138 21.1135 127.531 20.7959 128.333C20.4782 129.135 20.8724 130.042 21.6764 130.359C22.4804 130.676 23.3896 130.282 23.7073 129.481Z" fill="#FFCE94"/>
<path d="M91.1191 103.354C92.4376 103.354 93.7265 102.964 94.8228 102.233C95.9192 101.503 96.7739 100.464 97.2785 99.2494C97.7832 98.0344 97.9154 96.6974 97.6583 95.4075C97.4011 94.1176 96.7663 92.9327 95.8341 92.0027C94.9018 91.0727 93.714 90.4393 92.4209 90.1826C91.1277 89.9259 89.7873 90.0574 88.5691 90.5606C87.3509 91.0638 86.3096 91.916 85.577 93.0094C84.8444 94.1029 84.4532 95.3884 84.4531 96.7036C84.453 97.5768 84.6253 98.4415 84.9603 99.2483C85.2952 100.055 85.7862 100.788 86.4052 101.406C87.0242 102.023 87.7591 102.513 88.5679 102.847C89.3767 103.182 90.2436 103.354 91.1191 103.354Z" fill="#145EB3"/>
<path d="M107.053 80.6861C106.954 80.5854 106.85 80.4934 106.749 80.401L106.448 80.1192C106.397 80.0679 106.341 80.0208 106.282 79.9783C102.146 76.2174 96.7152 74.1917 91.1201 74.3224C85.5249 74.4531 80.1956 76.7302 76.2408 80.6801L75.276 81.645L73.9405 82.9765C73.1634 83.761 72.7291 84.8202 72.7324 85.923C72.7357 87.0258 73.1764 88.0825 73.9581 88.8623C74.7398 89.6421 75.7992 90.0818 76.9048 90.0852C78.0104 90.0887 79.0725 89.6556 79.859 88.8807L82.1617 86.5843C84.6803 84.08 88.0915 82.6738 91.6478 82.6738C95.204 82.6738 98.6153 84.08 101.134 86.5843L102.796 88.19C103.378 88.7646 104.117 89.1548 104.921 89.3116C105.724 89.4683 106.556 89.3847 107.312 89.071C108.068 88.7574 108.714 88.2279 109.169 87.549C109.624 86.8701 109.868 86.0722 109.869 85.2556C109.873 84.7143 109.768 84.1777 109.561 83.6773C109.354 83.1769 109.049 82.7229 108.663 82.3419L107.053 80.6861Z" fill="#145EB3"/>
<path d="M118.412 72.4699L117.026 71.0886C117.021 71.083 117.018 71.0747 117.006 71.0721L115.913 69.9758C115.723 69.7901 115.515 69.6239 115.292 69.4795C101.243 57.1743 79.8719 57.5499 66.2694 70.6017C66.2032 70.6621 66.1281 70.7023 66.0631 70.769L63.5622 73.2653C62.8666 73.9834 62.4817 74.9454 62.4904 75.9439C62.4991 76.9424 62.9007 77.8976 63.6086 78.6036C64.3166 79.3096 65.2742 79.71 66.2753 79.7184C67.2764 79.7269 68.2408 79.3428 68.9606 78.6489L71.4608 76.1574C71.4742 76.1376 71.4899 76.1195 71.5076 76.1034C82.5074 65.5047 99.9576 65.4399 111.045 75.8894L113.012 77.8551C113.729 78.5623 114.698 78.9577 115.707 78.9547C116.716 78.9517 117.682 78.5507 118.395 77.8392C119.108 77.1277 119.51 76.1635 119.513 75.1574C119.516 74.1514 119.119 73.1851 118.41 72.4697L118.412 72.4699Z" fill="#145EB3"/>
<path d="M154.51 171.202C162.074 171.202 168.205 170.515 168.205 169.667C168.205 168.82 162.074 168.133 154.51 168.133C146.947 168.133 140.816 168.82 140.816 169.667C140.816 170.515 146.947 171.202 154.51 171.202Z" fill="#EAEEF3"/>
<path d="M157.96 157.154C157.875 157.154 157.791 157.137 157.712 157.105C157.634 157.072 157.562 157.025 157.502 156.965C157.442 156.905 157.394 156.834 157.362 156.756C157.329 156.677 157.312 156.593 157.312 156.509V150.505C157.315 150.336 157.385 150.175 157.506 150.056C157.627 149.938 157.79 149.871 157.96 149.871C158.129 149.871 158.292 149.938 158.413 150.056C158.534 150.175 158.604 150.336 158.607 150.505V156.509C158.607 156.68 158.539 156.844 158.417 156.965C158.296 157.086 158.131 157.154 157.96 157.154Z" fill="#5A646E"/>
<path d="M157.961 151.055C160.434 151.055 162.439 149.055 162.439 146.588C162.439 144.121 160.434 142.121 157.961 142.121C155.487 142.121 153.482 144.121 153.482 146.588C153.482 149.055 155.487 151.055 157.961 151.055Z" fill="#145EB3"/>
<path d="M151.061 157.154C150.976 157.154 150.892 157.137 150.814 157.105C150.735 157.072 150.664 157.025 150.604 156.965C150.544 156.905 150.496 156.834 150.463 156.756C150.431 156.677 150.414 156.593 150.414 156.509V150.505C150.417 150.336 150.487 150.175 150.608 150.056C150.729 149.938 150.892 149.871 151.061 149.871C151.231 149.871 151.394 149.938 151.515 150.056C151.636 150.175 151.705 150.336 151.708 150.505V156.509C151.708 156.68 151.64 156.844 151.519 156.965C151.398 157.086 151.233 157.154 151.061 157.154Z" fill="#5A646E"/>
<path d="M151.062 151.743C153.536 151.743 155.541 149.743 155.541 147.276C155.541 144.809 153.536 142.809 151.062 142.809C148.589 142.809 146.584 144.809 146.584 147.276C146.584 149.743 148.589 151.743 151.062 151.743Z" fill="#145EB3"/>
<path d="M154.309 157.811C154.175 157.811 154.043 157.784 153.919 157.733C153.795 157.682 153.683 157.607 153.588 157.513C153.493 157.418 153.418 157.306 153.367 157.183C153.316 157.059 153.289 156.927 153.289 156.794V147.335C153.286 147.199 153.309 147.064 153.359 146.937C153.408 146.81 153.483 146.695 153.578 146.597C153.673 146.5 153.786 146.422 153.912 146.369C154.037 146.316 154.172 146.289 154.309 146.289C154.445 146.289 154.58 146.316 154.706 146.369C154.831 146.422 154.945 146.5 155.04 146.597C155.135 146.695 155.209 146.81 155.259 146.937C155.308 147.064 155.332 147.199 155.328 147.335V156.794C155.328 157.063 155.221 157.322 155.03 157.512C154.839 157.703 154.579 157.81 154.309 157.811Z" fill="#5A646E"/>
<path d="M154.308 149.283C158.205 149.283 161.364 146.132 161.364 142.245C161.364 138.358 158.205 135.207 154.308 135.207C150.411 135.207 147.252 138.358 147.252 142.245C147.252 146.132 150.411 149.283 154.308 149.283Z" fill="#00AEEF"/>
<path d="M156.19 169.667H152.771C151.818 169.667 150.903 169.289 150.228 168.617C149.554 167.944 149.175 167.032 149.175 166.08L148.225 157.334C148.225 156.691 148.481 156.075 148.936 155.62C149.392 155.166 150.01 154.91 150.654 154.91H158.107C158.751 154.91 159.369 155.166 159.825 155.62C160.281 156.075 160.537 156.691 160.537 157.334L159.788 166.08C159.788 166.551 159.695 167.018 159.514 167.453C159.333 167.888 159.068 168.284 158.734 168.617C158.4 168.95 158.004 169.214 157.567 169.395C157.131 169.575 156.663 169.668 156.19 169.667Z" fill="#231F20"/>
<path d="M125.806 65.1094C121.981 65.1048 118.272 66.4235 115.313 68.8407C112.354 71.258 110.326 74.6242 109.577 78.3655C108.827 82.1068 109.401 85.9917 111.202 89.3579C113.002 92.7242 115.917 95.3634 119.45 96.8258C122.983 98.2881 126.915 98.4831 130.576 97.3774C134.237 96.2717 137.401 93.9339 139.527 90.7623C141.653 87.5908 142.611 83.7819 142.237 79.9848C141.863 76.1878 140.18 72.6376 137.475 69.9396C134.381 66.8503 130.184 65.113 125.806 65.1094Z" fill="#00AEEF"/>
<path d="M125.802 93.6863C132.566 93.6863 138.049 88.2671 138.05 81.581C138.05 74.8949 132.568 69.4731 125.804 69.4727C119.04 69.4723 113.557 74.8917 113.557 81.5788C113.556 88.2659 119.038 93.6863 125.802 93.6863Z" fill="white"/>
<path d="M129.348 75.7188C129.466 75.7183 129.582 75.7412 129.691 75.7859C129.8 75.8306 129.898 75.8963 129.981 75.9793L131.403 77.3979C131.486 77.4808 131.552 77.5791 131.597 77.6874C131.641 77.7957 131.665 77.9117 131.665 78.0288C131.665 78.146 131.641 78.2621 131.597 78.3703C131.552 78.4786 131.486 78.5769 131.403 78.6598L128.88 81.1762C128.776 81.2806 128.717 81.4217 128.717 81.5688C128.717 81.7159 128.776 81.857 128.88 81.9614L131.414 84.4909C131.583 84.6589 131.677 84.8865 131.677 85.1239C131.678 85.3613 131.584 85.5891 131.416 85.7576L129.996 87.173C129.87 87.2985 129.71 87.3838 129.536 87.4183C129.362 87.4528 129.181 87.4347 129.017 87.3665C128.908 87.3212 128.809 87.2551 128.726 87.172L126.191 84.6425C126.113 84.5645 126.014 84.5114 125.906 84.4898C125.798 84.4683 125.686 84.4794 125.584 84.5217C125.516 84.5492 125.454 84.5903 125.402 84.6425L122.887 87.1509C122.719 87.3177 122.491 87.4114 122.254 87.4114C122.017 87.4114 121.789 87.3177 121.621 87.1509L120.201 85.7332C120.117 85.6503 120.051 85.5519 120.006 85.4434C119.961 85.335 119.937 85.2187 119.937 85.1013C119.937 84.9838 119.961 84.8676 120.006 84.7591C120.051 84.6507 120.117 84.5522 120.201 84.4693L122.716 81.961C122.768 81.9094 122.809 81.8482 122.837 81.7809C122.865 81.7135 122.879 81.6413 122.879 81.5684C122.879 81.4955 122.865 81.4233 122.837 81.3559C122.809 81.2885 122.768 81.2274 122.716 81.1758L120.196 78.6612C120.112 78.5783 120.046 78.4797 120.001 78.3712C119.955 78.2627 119.932 78.1464 119.932 78.0288C119.931 77.9114 119.954 77.795 119.999 77.6865C120.044 77.578 120.111 77.4794 120.194 77.3965L121.613 75.9809C121.781 75.8133 122.01 75.7193 122.248 75.7196C122.486 75.7198 122.714 75.8142 122.882 75.9821L125.403 78.4965C125.455 78.5486 125.516 78.5897 125.585 78.6173C125.686 78.6595 125.799 78.6705 125.907 78.649C126.015 78.6275 126.114 78.5744 126.192 78.4965L128.715 75.9801C128.798 75.8969 128.897 75.8311 129.005 75.7866C129.114 75.7422 129.231 75.7194 129.348 75.7196L129.348 75.7188Z" fill="#00AEEF"/>
</svg>
